{"accessors" : [{"bufferView" : 0, "byteOffset" : 0, "componentType" : 5123, "count" : 9888, "type" : "SCALAR", "max" : [8310], "min" : [0]}, {"bufferView" : 1, "byteOffset" : 0, "componentType" : 5126, "count" : 8311, "type" : "VEC3", "max" : [3.581465482711792, 11.673751831054688, 0.6569138765335083], "min" : [-3.5946526527404785, 4.222197532653809, -0.5074488520622253], "name" : "POSITION"}, {"bufferView" : 1, "byteOffset" : 12, "componentType" : 5126, "count" : 8311, "type" : "VEC3", "max" : [0.997782826423645, 0.9997315406799316, 1.0000044107437134], "min" : [-1.000002145767212, -0.9998394846916199, -1.0000044107437134], "name" : "NORMAL"}, {"bufferView" : 1, "byteOffset" : 24, "componentType" : 5126, "count" : 8311, "type" : "VEC2", "max" : [1, 0.9689511656761169], "min" : [0, 0], "name" : "TEXCOORD_0"}], "asset" : {"generator" : "Aspose.3D 23.2", "version" : "2.0"}, "buffers" : [{"uri" : "data:application/octet-stream;base64,", "byteLength" : 336200}], "bufferViews" : [{"buffer" : 0, "byteOffset" : 0, "byteLength" : 19776, "target" : 34963}, {"buffer" : 0, "byteOffset" : 19780, "byteLength" : 316416, "byteStride" : 32, "target" : 34962}], "cameras" : [{"perspective" : {"aspectRatio" : 1, "yfov" : 0.7853985000000001, "zfar" : 10000, "znear" : 0.1}, "type" : "perspective", "name" : ""}, {"perspective" : {"aspectRatio" : 1.777777777777778, "yfov" : 0.5110914556255509, "zfar" : 10000, "znear" : 0.1}, "type" : "perspective", "name" : ""}, {"perspective" : {"aspectRatio" : 1.777777777777778, "yfov" : 0.5110914556255509, "zfar" : 10000, "znear" : 0.1}, "type" : "perspective", "name" : ""}, {"perspective" : {"aspectRatio" : 1.777777777777778, "yfov" : 0.5110914556255509, "zfar" : 10000, "znear" : 0.1}, "type" : "perspective", "name" : ""}, {"perspective" : {"aspectRatio" : 1.777777777777778, "yfov" : 0.5110914556255509, "zfar" : 10000, "znear" : 0.1}, "type" : "perspective", "name" : ""}], "materials" : [{"pbrMetallicRoughness" : {"baseColorFactor" : [0.5, 0.5, 0.5, 1], "metallicFactor" : 0, "roughnessFactor" : 1}, "emissiveFactor" : [0, 0, 0], "alphaMode" : "OPAQUE", "doubleSided" : false}], "meshes" : [{"primitives" : [{"attributes" : {"POSITION" : 1, "NORMAL" : 2, "TEXCOORD_0" : 3}, "indices" : 0, "material" : 0, "mode" : 4}]}], "nodes" : [{"mesh" : 0, "name" : "Node #0"}, {"camera" : 0, "matrix" : [0.9925461516413219, -4.336808689942018E-19, 0.12186934340514909, 0, 0.006966449236308876, 0.9983648438571296, -0.05673717595339777, 0, -0.12167006799965258, 0.05716326224183577, 0.9909231837043833, 0, -2.245946410467229, 9.120617871812762, 17.140521848296913, 1], "name" : "Node #1"}, {"camera" : 1, "matrix" : [0.8589598969306637, 0, 0.5120428648705727, 0, 0.0696889441493109, 0.9906951285414755, -0.11690429139917702, 0, -0.5072783718316974, 0.13609982470300785, 0.8509673855016964, 0, -10.976144172686741, 10.772006540355509, 18.156233446718336, 1], "name" : "Node #2"}, {"camera" : 2, "matrix" : [0.7337298645028754, 2.775557561562891E-17, -0.6794413042615174, 0, -0.40910841148282845, 0.7984020354590553, -0.4417968961285648, 0, 0.5424673202973509, 0.6021247294164535, 0.5858114172961927, 0, 11.226455194391129, 20.43340335835245, 11.63033353351876, 1], "name" : "Node #3"}, {"camera" : 3, "matrix" : [0.7592713073348788, -1.3877787807814455E-17, 0.650774217265853, 0, -0.2362769497230905, 0.9317616537324952, 0.2756690473434366, 0, -0.6063664608861015, -0.36307054498221925, 0.7074598889539803, 0, -12.443257762249386, 0.6596208827129857, 13.840622695250875, 1], "name" : "Node #4"}, {"camera" : 4, "matrix" : [0.9163627295622391, 0, -0.40034903255689597, 0, -0.06462131483912721, 0.9868870369475817, -0.14791234557427788, 0, 0.3950992704849061, 0.16141244160479767, 0.9043464989468765, 0, 15.759218283402058, 14.466233813697924, 35.372651798253095, 1], "name" : "Node #5"}], "scene" : 0, "scenes" : [{"nodes" : [0, 1, 2, 3, 4, 5]}]}